<svg xmlns="http://www.w3.org/2000/svg" width="1100" height="650" viewBox="0 0 1100 650">
<rect width="100%" height="100%" fill="white"/>
<text x="550.0" y="28" text-anchor="middle" font-family="Arial" font-size="22" font-weight="bold">S&amp;P 500 Gross Profit Margin Over Time</text>
<line x1="80" y1="590.0" x2="1070" y2="590.0" stroke="#e5e7eb" stroke-width="1"/>
<text x="70" y="594.0" text-anchor="end" font-family="Arial" font-size="12" fill="#374151">0.40</text>
<line x1="80" y1="455.0" x2="1070" y2="455.0" stroke="#e5e7eb" stroke-width="1"/>
<text x="70" y="459.0" text-anchor="end" font-family="Arial" font-size="12" fill="#374151">0.44</text>
<line x1="80" y1="320.0" x2="1070" y2="320.0" stroke="#e5e7eb" stroke-width="1"/>
<text x="70" y="324.0" text-anchor="end" font-family="Arial" font-size="12" fill="#374151">0.48</text>
<line x1="80" y1="185.0" x2="1070" y2="185.0" stroke="#e5e7eb" stroke-width="1"/>
<text x="70" y="189.0" text-anchor="end" font-family="Arial" font-size="12" fill="#374151">0.52</text>
<line x1="80" y1="50.0" x2="1070" y2="50.0" stroke="#e5e7eb" stroke-width="1"/>
<text x="70" y="54.0" text-anchor="end" font-family="Arial" font-size="12" fill="#374151">0.56</text>
<line x1="80.0" y1="50" x2="80.0" y2="590" stroke="#f3f4f6" stroke-width="1"/>
<text x="80.0" y="612" text-anchor="middle" font-family="Arial" font-size="12" fill="#374151">2009</text>
<line x1="265.6" y1="50" x2="265.6" y2="590" stroke="#f3f4f6" stroke-width="1"/>
<text x="265.6" y="612" text-anchor="middle" font-family="Arial" font-size="12" fill="#374151">2012</text>
<line x1="451.2" y1="50" x2="451.2" y2="590" stroke="#f3f4f6" stroke-width="1"/>
<text x="451.2" y="612" text-anchor="middle" font-family="Arial" font-size="12" fill="#374151">2015</text>
<line x1="636.9" y1="50" x2="636.9" y2="590" stroke="#f3f4f6" stroke-width="1"/>
<text x="636.9" y="612" text-anchor="middle" font-family="Arial" font-size="12" fill="#374151">2018</text>
<line x1="822.5" y1="50" x2="822.5" y2="590" stroke="#f3f4f6" stroke-width="1"/>
<text x="822.5" y="612" text-anchor="middle" font-family="Arial" font-size="12" fill="#374151">2021</text>
<line x1="1070.0" y1="50" x2="1070.0" y2="590" stroke="#f3f4f6" stroke-width="1"/>
<text x="1070.0" y="612" text-anchor="middle" font-family="Arial" font-size="12" fill="#374151">2025</text>
<line x1="80" y1="590" x2="1070" y2="590" stroke="#111827" stroke-width="1.5"/>
<line x1="80" y1="50" x2="80" y2="590" stroke="#111827" stroke-width="1.5"/>
<text x="550.0" y="635" text-anchor="middle" font-family="Arial" font-size="14">Fiscal year</text>
<text x="20" y="325.0" transform="rotate(-90 20 325.0)" text-anchor="middle" font-family="Arial" font-size="14">Gross profit margin</text>
<polyline fill="none" stroke="#4C78A8" stroke-width="3" points="80.0,532.8 141.9,552.8 203.8,509.0 265.6,498.2 327.5,494.6 389.4,485.1 451.2,453.8 513.1,464.5 575.0,441.6 636.9,427.3 698.8,443.6 760.6,465.3 822.5,433.5 884.4,435.2 946.2,460.9 1008.1,394.7 1070.0,349.5"/>
<line x1="850" y1="50" x2="868" y2="50" stroke="#4C78A8" stroke-width="3"/>
<text x="876" y="54" font-family="Arial" font-size="13">Median</text>
<polyline fill="none" stroke="#F58518" stroke-width="3" points="80.0,446.9 141.9,474.6 203.8,458.2 265.6,464.9 327.5,456.4 389.4,456.0 451.2,430.9 513.1,434.3 575.0,428.2 636.9,405.8 698.8,222.7 760.6,189.9 822.5,203.6 884.4,237.3 946.2,171.7 1008.1,87.2 1070.0,180.4"/>
<line x1="850" y1="72" x2="868" y2="72" stroke="#F58518" stroke-width="3"/>
<text x="876" y="76" font-family="Arial" font-size="13">Mean</text>
</svg>