<svg xmlns="http://www.w3.org/2000/svg" width="1100" height="650" viewBox="0 0 1100 650">
<rect width="100%" height="100%" fill="white"/>
<text x="550.0" y="28" text-anchor="middle" font-family="Arial" font-size="22" font-weight="bold">Median Gross Profit Margin by Sector</text>
<line x1="80" y1="590.0" x2="1070" y2="590.0" stroke="#e5e7eb" stroke-width="1"/>
<text x="70" y="594.0" text-anchor="end" font-family="Arial" font-size="12" fill="#374151">0.23</text>
<line x1="80" y1="455.0" x2="1070" y2="455.0" stroke="#e5e7eb" stroke-width="1"/>
<text x="70" y="459.0" text-anchor="end" font-family="Arial" font-size="12" fill="#374151">0.34</text>
<line x1="80" y1="320.0" x2="1070" y2="320.0" stroke="#e5e7eb" stroke-width="1"/>
<text x="70" y="324.0" text-anchor="end" font-family="Arial" font-size="12" fill="#374151">0.44</text>
<line x1="80" y1="185.0" x2="1070" y2="185.0" stroke="#e5e7eb" stroke-width="1"/>
<text x="70" y="189.0" text-anchor="end" font-family="Arial" font-size="12" fill="#374151">0.55</text>
<line x1="80" y1="50.0" x2="1070" y2="50.0" stroke="#e5e7eb" stroke-width="1"/>
<text x="70" y="54.0" text-anchor="end" font-family="Arial" font-size="12" fill="#374151">0.65</text>
<line x1="80.0" y1="50" x2="80.0" y2="590" stroke="#f3f4f6" stroke-width="1"/>
<text x="80.0" y="612" text-anchor="middle" font-family="Arial" font-size="12" fill="#374151">2009</text>
<line x1="265.6" y1="50" x2="265.6" y2="590" stroke="#f3f4f6" stroke-width="1"/>
<text x="265.6" y="612" text-anchor="middle" font-family="Arial" font-size="12" fill="#374151">2012</text>
<line x1="451.2" y1="50" x2="451.2" y2="590" stroke="#f3f4f6" stroke-width="1"/>
<text x="451.2" y="612" text-anchor="middle" font-family="Arial" font-size="12" fill="#374151">2015</text>
<line x1="636.9" y1="50" x2="636.9" y2="590" stroke="#f3f4f6" stroke-width="1"/>
<text x="636.9" y="612" text-anchor="middle" font-family="Arial" font-size="12" fill="#374151">2018</text>
<line x1="822.5" y1="50" x2="822.5" y2="590" stroke="#f3f4f6" stroke-width="1"/>
<text x="822.5" y="612" text-anchor="middle" font-family="Arial" font-size="12" fill="#374151">2021</text>
<line x1="1070.0" y1="50" x2="1070.0" y2="590" stroke="#f3f4f6" stroke-width="1"/>
<text x="1070.0" y="612" text-anchor="middle" font-family="Arial" font-size="12" fill="#374151">2025</text>
<line x1="80" y1="590" x2="1070" y2="590" stroke="#111827" stroke-width="1.5"/>
<line x1="80" y1="50" x2="80" y2="590" stroke="#111827" stroke-width="1.5"/>
<text x="550.0" y="635" text-anchor="middle" font-family="Arial" font-size="14">Fiscal year</text>
<text x="20" y="325.0" transform="rotate(-90 20 325.0)" text-anchor="middle" font-family="Arial" font-size="14">Median gross profit margin</text>
<polyline fill="none" stroke="#4C78A8" stroke-width="3" points="80.0,175.8 141.9,200.9 203.8,240.6 265.6,221.7 327.5,199.9 389.4,226.1 451.2,176.8 513.1,187.0 575.0,185.5 636.9,161.2 698.8,181.6 760.6,172.3 822.5,161.1 884.4,147.2 946.2,159.4 1008.1,162.4 1070.0,169.9"/>
<line x1="850" y1="50" x2="868" y2="50" stroke="#4C78A8" stroke-width="3"/>
<text x="876" y="54" font-family="Arial" font-size="13">Information Technology</text>
<polyline fill="none" stroke="#F58518" stroke-width="3" points="80.0,136.4 141.9,141.4 203.8,122.0 265.6,119.8 327.5,113.4 389.4,138.4 451.2,146.0 513.1,148.2 575.0,137.9 636.9,136.0 698.8,135.7 760.6,136.5 822.5,87.2 884.4,98.6 946.2,123.5 1008.1,116.3 1070.0,123.0"/>
<line x1="850" y1="72" x2="868" y2="72" stroke="#F58518" stroke-width="3"/>
<text x="876" y="76" font-family="Arial" font-size="13">Health Care</text>
<polyline fill="none" stroke="#4E79A7" stroke-width="3" points="80.0,423.6 141.9,438.5 203.8,461.3 265.6,453.6 327.5,455.9 389.4,439.4 451.2,453.7 513.1,480.3 575.0,442.1 636.9,472.7 698.8,452.0 760.6,456.0 822.5,451.5 884.4,466.2 946.2,427.7 1008.1,415.8 1070.0,418.4"/>
<line x1="850" y1="94" x2="868" y2="94" stroke="#4E79A7" stroke-width="3"/>
<text x="876" y="98" font-family="Arial" font-size="13">Industrials</text>
<polyline fill="none" stroke="#F28E2B" stroke-width="3" points="80.0,499.1 141.9,437.6 203.8,445.0 265.6,444.8 327.5,442.5 389.4,396.9 451.2,427.3 513.1,388.1 575.0,367.2 636.9,321.6 698.8,316.1 760.6,380.9 822.5,323.6 884.4,326.7 946.2,323.4 1008.1,279.3 1070.0,249.8"/>
<line x1="850" y1="116" x2="868" y2="116" stroke="#F28E2B" stroke-width="3"/>
<text x="876" y="120" font-family="Arial" font-size="13">Consumer Discretionary</text>
<polyline fill="none" stroke="#72B7B2" stroke-width="3" points="80.0,424.6 141.9,442.2 203.8,439.6 265.6,409.3 327.5,412.0 389.4,391.0 451.2,390.2 513.1,387.3 575.0,389.9 636.9,326.2 698.8,373.9 760.6,361.7 822.5,382.0 884.4,427.6 946.2,398.2 1008.1,386.6 1070.0,426.4"/>
<line x1="850" y1="138" x2="868" y2="138" stroke="#72B7B2" stroke-width="3"/>
<text x="876" y="142" font-family="Arial" font-size="13">Consumer Staples</text>
<polyline fill="none" stroke="#B279A2" stroke-width="3" points="80.0,509.7 141.9,538.1 203.8,539.4 265.6,552.8 327.5,545.8 389.4,543.4 451.2,505.5 513.1,529.8 575.0,536.5 636.9,544.7 698.8,542.5 760.6,534.1 822.5,500.5 884.4,522.9 946.2,529.5 1008.1,519.5 1070.0,508.3"/>
<line x1="850" y1="160" x2="868" y2="160" stroke="#B279A2" stroke-width="3"/>
<text x="876" y="164" font-family="Arial" font-size="13">Materials</text>
</svg>