<svg xmlns="http://www.w3.org/2000/svg" width="1200" height="720" viewBox="0 0 1200 720">
<rect width="100%" height="100%" fill="white"/>
<text x="600.0" y="30" text-anchor="middle" font-family="Arial" font-size="24" font-weight="bold">Margins vs Energy Prices Indexed to Start Year</text>
<text x="600.0" y="50" text-anchor="middle" font-family="Arial" font-size="13" fill="#374151">All energy series except Gas; each line starts at 100 in the first year of the sample</text>
<line x1="85" y1="650.0" x2="910" y2="650.0" stroke="#e5e7eb" stroke-width="1"/>
<text x="75" y="654.0" text-anchor="end" font-family="Arial" font-size="12" fill="#374151">15.3</text>
<line x1="85" y1="501.2" x2="910" y2="501.2" stroke="#e5e7eb" stroke-width="1"/>
<text x="75" y="505.2" text-anchor="end" font-family="Arial" font-size="12" fill="#374151">146.6</text>
<line x1="85" y1="352.5" x2="910" y2="352.5" stroke="#e5e7eb" stroke-width="1"/>
<text x="75" y="356.5" text-anchor="end" font-family="Arial" font-size="12" fill="#374151">278.0</text>
<line x1="85" y1="203.8" x2="910" y2="203.8" stroke="#e5e7eb" stroke-width="1"/>
<text x="75" y="207.8" text-anchor="end" font-family="Arial" font-size="12" fill="#374151">409.3</text>
<line x1="85" y1="55.0" x2="910" y2="55.0" stroke="#e5e7eb" stroke-width="1"/>
<text x="75" y="59.0" text-anchor="end" font-family="Arial" font-size="12" fill="#374151">540.7</text>
<line x1="85.0" y1="55" x2="85.0" y2="650" stroke="#f3f4f6" stroke-width="1"/>
<text x="85.0" y="672" text-anchor="middle" font-family="Arial" font-size="12">2009</text>
<line x1="136.6" y1="55" x2="136.6" y2="650" stroke="#f3f4f6" stroke-width="1"/>
<line x1="188.1" y1="55" x2="188.1" y2="650" stroke="#f3f4f6" stroke-width="1"/>
<text x="188.1" y="672" text-anchor="middle" font-family="Arial" font-size="12">2011</text>
<line x1="239.7" y1="55" x2="239.7" y2="650" stroke="#f3f4f6" stroke-width="1"/>
<line x1="291.2" y1="55" x2="291.2" y2="650" stroke="#f3f4f6" stroke-width="1"/>
<text x="291.2" y="672" text-anchor="middle" font-family="Arial" font-size="12">2013</text>
<line x1="342.8" y1="55" x2="342.8" y2="650" stroke="#f3f4f6" stroke-width="1"/>
<line x1="394.4" y1="55" x2="394.4" y2="650" stroke="#f3f4f6" stroke-width="1"/>
<text x="394.4" y="672" text-anchor="middle" font-family="Arial" font-size="12">2015</text>
<line x1="445.9" y1="55" x2="445.9" y2="650" stroke="#f3f4f6" stroke-width="1"/>
<line x1="497.5" y1="55" x2="497.5" y2="650" stroke="#f3f4f6" stroke-width="1"/>
<text x="497.5" y="672" text-anchor="middle" font-family="Arial" font-size="12">2017</text>
<line x1="549.1" y1="55" x2="549.1" y2="650" stroke="#f3f4f6" stroke-width="1"/>
<line x1="600.6" y1="55" x2="600.6" y2="650" stroke="#f3f4f6" stroke-width="1"/>
<text x="600.6" y="672" text-anchor="middle" font-family="Arial" font-size="12">2019</text>
<line x1="652.2" y1="55" x2="652.2" y2="650" stroke="#f3f4f6" stroke-width="1"/>
<line x1="703.8" y1="55" x2="703.8" y2="650" stroke="#f3f4f6" stroke-width="1"/>
<text x="703.8" y="672" text-anchor="middle" font-family="Arial" font-size="12">2021</text>
<line x1="755.3" y1="55" x2="755.3" y2="650" stroke="#f3f4f6" stroke-width="1"/>
<line x1="806.9" y1="55" x2="806.9" y2="650" stroke="#f3f4f6" stroke-width="1"/>
<text x="806.9" y="672" text-anchor="middle" font-family="Arial" font-size="12">2023</text>
<line x1="858.4" y1="55" x2="858.4" y2="650" stroke="#f3f4f6" stroke-width="1"/>
<line x1="910.0" y1="55" x2="910.0" y2="650" stroke="#f3f4f6" stroke-width="1"/>
<text x="910.0" y="672" text-anchor="middle" font-family="Arial" font-size="12">2025</text>
<line x1="755.3" y1="55" x2="755.3" y2="650" stroke="#111827" stroke-dasharray="6 4" stroke-width="1.5"/>
<text x="761.3" y="69" font-family="Arial" font-size="12" fill="#111827">2022 shock</text>
<line x1="85" y1="650" x2="910" y2="650" stroke="#111827" stroke-width="1.5"/>
<line x1="85" y1="55" x2="85" y2="650" stroke="#111827" stroke-width="1.5"/>
<text x="497.5" y="702" text-anchor="middle" font-family="Arial" font-size="14">Fiscal year</text>
<text x="24" y="360.0" transform="rotate(-90 24 360.0)" text-anchor="middle" font-family="Arial" font-size="14">Index (start year = 100)</text>
<polyline fill="none" stroke="#1f4e79" stroke-width="3" points="85.0,554.0 136.6,555.6 188.1,552.1 239.7,551.2 291.2,551.0 342.8,550.2 394.4,547.7 445.9,548.5 497.5,546.7 549.1,545.5 600.6,546.9 652.2,548.6 703.8,546.0 755.3,546.2 806.9,548.2 858.4,542.9 910.0,539.3"/>
<line x1="930" y1="63" x2="948" y2="63" stroke="#1f4e79" stroke-width="3"/>
<text x="956" y="67" font-family="Arial" font-size="12">Median gross margin (start=100)</text>
<polyline fill="none" stroke="#4e79a7" stroke-width="3" points="85.0,554.0 136.6,511.8 188.1,474.6 239.7,516.4 291.2,533.3 342.8,554.7 394.4,574.1 445.9,563.1 497.5,527.3 549.1,498.9 600.6,545.1 652.2,575.1 703.8,453.2 755.3,96.0 806.9,387.5 858.4,453.8 910.0,500.1"/>
<line x1="930" y1="85" x2="948" y2="85" stroke="#4e79a7" stroke-width="3"/>
<text x="956" y="89" font-family="Arial" font-size="12">Coal (start=100)</text>
<polyline fill="none" stroke="#e07a1f" stroke-width="3" points="85.0,554.0 136.6,521.5 188.1,493.0 239.7,494.4 291.2,487.5 342.8,496.0 394.4,577.9 445.9,588.0 497.5,573.8 549.1,548.0 600.6,562.6 652.2,595.2 703.8,542.4 755.3,493.2 806.9,524.7 858.4,526.7 910.0,547.0"/>
<line x1="930" y1="107" x2="948" y2="107" stroke="#e07a1f" stroke-width="3"/>
<text x="956" y="111" font-family="Arial" font-size="12">Crude oil (start=100)</text>
<polyline fill="none" stroke="#f28e2b" stroke-width="3" points="85.0,554.0 136.6,530.0 188.1,491.0 239.7,485.2 291.2,487.3 342.8,491.7 394.4,543.1 445.9,561.5 497.5,545.7 549.1,521.4 600.6,527.0 652.2,550.2 703.8,516.4 755.3,438.3 806.9,473.9 858.4,494.7 910.0,499.3"/>
<line x1="930" y1="129" x2="948" y2="129" stroke="#f28e2b" stroke-width="3"/>
<text x="956" y="133" font-family="Arial" font-size="12">Diesel (start=100)</text>
<polyline fill="none" stroke="#7b61ff" stroke-width="3" points="85.0,554.0 136.6,552.5 188.1,546.4 239.7,542.7 291.2,546.0 342.8,537.6 394.4,534.4 445.9,540.4 497.5,524.2 549.1,520.4 600.6,522.7 652.2,524.5 703.8,518.0 755.3,501.2 806.9,488.1 858.4,485.8 910.0,480.5"/>
<line x1="930" y1="151" x2="948" y2="151" stroke="#7b61ff" stroke-width="3"/>
<text x="956" y="155" font-family="Arial" font-size="12">Electricity (start=100)</text>
<polyline fill="none" stroke="#8d6e63" stroke-width="3" points="85.0,554.0 136.6,524.3 188.1,479.6 239.7,474.9 291.2,481.6 342.8,492.0 394.4,554.8 445.9,575.1 497.5,558.4 549.1,538.8 600.6,550.9 652.2,585.3 703.8,528.4 755.3,474.0 806.9,502.3 858.4,516.9 910.0,532.1"/>
<line x1="930" y1="173" x2="948" y2="173" stroke="#8d6e63" stroke-width="3"/>
<text x="956" y="177" font-family="Arial" font-size="12">Gasoline (start=100)</text>
<polyline fill="none" stroke="#d81b60" stroke-width="3" points="85.0,554.0 136.6,520.7 188.1,464.0 239.7,458.7 291.2,465.4 342.8,481.3 394.4,560.6 445.9,578.7 497.5,558.3 549.1,525.5 600.6,535.2 652.2,584.5 703.8,535.4 755.3,421.7 806.9,482.5 858.4,509.1 910.0,514.9"/>
<line x1="930" y1="195" x2="948" y2="195" stroke="#d81b60" stroke-width="3"/>
<text x="956" y="199" font-family="Arial" font-size="12">Heating oil (start=100)</text>
<polyline fill="none" stroke="#6b7280" stroke-width="3" points="85.0,554.0 136.6,541.5 188.1,552.6 239.7,588.3 291.2,560.3 342.8,541.3 394.4,591.9 445.9,595.2 497.5,581.6 549.1,576.5 600.6,593.7 652.2,609.0 703.8,555.2 755.3,483.2 806.9,594.6 858.4,604.4 910.0,566.1"/>
<line x1="930" y1="217" x2="948" y2="217" stroke="#6b7280" stroke-width="3"/>
<text x="956" y="221" font-family="Arial" font-size="12">Natural gas (start=100)</text>
</svg>