<svg xmlns="http://www.w3.org/2000/svg" width="1120" height="680" viewBox="0 0 1120 680">
<rect width="100%" height="100%" fill="white"/>
<text x="560.0" y="30" text-anchor="middle" font-family="Arial" font-size="24" font-weight="bold">High vs Lower Energy Exposure Sector Baskets</text>
<line x1="85" y1="610.0" x2="1080" y2="610.0" stroke="#e5e7eb" stroke-width="1"/>
<text x="75" y="614.0" text-anchor="end" font-family="Arial" font-size="12" fill="#374151">0.26</text>
<line x1="85" y1="471.2" x2="1080" y2="471.2" stroke="#e5e7eb" stroke-width="1"/>
<text x="75" y="475.2" text-anchor="end" font-family="Arial" font-size="12" fill="#374151">0.35</text>
<line x1="85" y1="332.5" x2="1080" y2="332.5" stroke="#e5e7eb" stroke-width="1"/>
<text x="75" y="336.5" text-anchor="end" font-family="Arial" font-size="12" fill="#374151">0.44</text>
<line x1="85" y1="193.8" x2="1080" y2="193.8" stroke="#e5e7eb" stroke-width="1"/>
<text x="75" y="197.8" text-anchor="end" font-family="Arial" font-size="12" fill="#374151">0.53</text>
<line x1="85" y1="55.0" x2="1080" y2="55.0" stroke="#e5e7eb" stroke-width="1"/>
<text x="75" y="59.0" text-anchor="end" font-family="Arial" font-size="12" fill="#374151">0.62</text>
<line x1="85.0" y1="55" x2="85.0" y2="610" stroke="#f3f4f6" stroke-width="1"/>
<text x="85.0" y="632" text-anchor="middle" font-family="Arial" font-size="12">2009</text>
<line x1="209.4" y1="55" x2="209.4" y2="610" stroke="#f3f4f6" stroke-width="1"/>
<text x="209.4" y="632" text-anchor="middle" font-family="Arial" font-size="12">2011</text>
<line x1="333.8" y1="55" x2="333.8" y2="610" stroke="#f3f4f6" stroke-width="1"/>
<text x="333.8" y="632" text-anchor="middle" font-family="Arial" font-size="12">2013</text>
<line x1="458.1" y1="55" x2="458.1" y2="610" stroke="#f3f4f6" stroke-width="1"/>
<text x="458.1" y="632" text-anchor="middle" font-family="Arial" font-size="12">2015</text>
<line x1="582.5" y1="55" x2="582.5" y2="610" stroke="#f3f4f6" stroke-width="1"/>
<text x="582.5" y="632" text-anchor="middle" font-family="Arial" font-size="12">2017</text>
<line x1="706.9" y1="55" x2="706.9" y2="610" stroke="#f3f4f6" stroke-width="1"/>
<text x="706.9" y="632" text-anchor="middle" font-family="Arial" font-size="12">2019</text>
<line x1="831.2" y1="55" x2="831.2" y2="610" stroke="#f3f4f6" stroke-width="1"/>
<text x="831.2" y="632" text-anchor="middle" font-family="Arial" font-size="12">2021</text>
<line x1="955.6" y1="55" x2="955.6" y2="610" stroke="#f3f4f6" stroke-width="1"/>
<text x="955.6" y="632" text-anchor="middle" font-family="Arial" font-size="12">2023</text>
<line x1="1080.0" y1="55" x2="1080.0" y2="610" stroke="#f3f4f6" stroke-width="1"/>
<text x="1080.0" y="632" text-anchor="middle" font-family="Arial" font-size="12">2025</text>
<line x1="893.4" y1="55" x2="893.4" y2="610" stroke="#111827" stroke-dasharray="6 4" stroke-width="1.5"/>
<text x="899.4" y="69" font-family="Arial" font-size="12" fill="#111827">2022 shock</text>
<line x1="85" y1="610" x2="1080" y2="610" stroke="#111827" stroke-width="1.5"/>
<line x1="85" y1="55" x2="85" y2="610" stroke="#111827" stroke-width="1.5"/>
<text x="560.0" y="662" text-anchor="middle" font-family="Arial" font-size="14">Fiscal year</text>
<text x="24" y="340.0" transform="rotate(-90 24 340.0)" text-anchor="middle" font-family="Arial" font-size="14">Median gross profit margin</text>
<polyline fill="none" stroke="#1f4e79" stroke-width="3" points="85.0,502.7 147.2,555.6 209.4,567.9 271.6,571.7 333.8,555.7 395.9,530.9 458.1,518.4 520.3,531.0 582.5,537.1 644.7,542.6 706.9,510.0 769.1,545.2 831.2,546.4 893.4,545.8 955.6,493.5 1017.8,479.2 1080.0,487.9"/>
<line x1="810" y1="61" x2="828" y2="61" stroke="#1f4e79" stroke-width="3"/>
<text x="836" y="65" font-family="Arial" font-size="13">High energy exposure</text>
<polyline fill="none" stroke="#e07a1f" stroke-width="3" points="85.0,148.2 147.2,174.1 209.4,192.0 271.6,187.8 333.8,148.2 395.9,167.3 458.1,133.4 520.3,127.9 582.5,119.6 644.7,104.8 706.9,104.7 769.1,114.8 831.2,102.0 893.4,93.3 955.6,96.8 1017.8,104.4 1080.0,95.6"/>
<line x1="810" y1="83" x2="828" y2="83" stroke="#e07a1f" stroke-width="3"/>
<text x="836" y="87" font-family="Arial" font-size="13">Lower energy exposure</text>
</svg>