<svg xmlns="http://www.w3.org/2000/svg" width="1100" height="650" viewBox="0 0 1100 650">
<rect width="100%" height="100%" fill="white"/>
<text x="550.0" y="28" text-anchor="middle" font-family="Arial" font-size="22" font-weight="bold">Representative Company Gross Margin Histories</text>
<line x1="80" y1="590.0" x2="1070" y2="590.0" stroke="#e5e7eb" stroke-width="1"/>
<text x="70" y="594.0" text-anchor="end" font-family="Arial" font-size="12" fill="#374151">0.17</text>
<line x1="80" y1="455.0" x2="1070" y2="455.0" stroke="#e5e7eb" stroke-width="1"/>
<text x="70" y="459.0" text-anchor="end" font-family="Arial" font-size="12" fill="#374151">0.26</text>
<line x1="80" y1="320.0" x2="1070" y2="320.0" stroke="#e5e7eb" stroke-width="1"/>
<text x="70" y="324.0" text-anchor="end" font-family="Arial" font-size="12" fill="#374151">0.35</text>
<line x1="80" y1="185.0" x2="1070" y2="185.0" stroke="#e5e7eb" stroke-width="1"/>
<text x="70" y="189.0" text-anchor="end" font-family="Arial" font-size="12" fill="#374151">0.44</text>
<line x1="80" y1="50.0" x2="1070" y2="50.0" stroke="#e5e7eb" stroke-width="1"/>
<text x="70" y="54.0" text-anchor="end" font-family="Arial" font-size="12" fill="#374151">0.53</text>
<line x1="80.0" y1="50" x2="80.0" y2="590" stroke="#f3f4f6" stroke-width="1"/>
<text x="80.0" y="612" text-anchor="middle" font-family="Arial" font-size="12" fill="#374151">2009</text>
<line x1="265.6" y1="50" x2="265.6" y2="590" stroke="#f3f4f6" stroke-width="1"/>
<text x="265.6" y="612" text-anchor="middle" font-family="Arial" font-size="12" fill="#374151">2012</text>
<line x1="451.2" y1="50" x2="451.2" y2="590" stroke="#f3f4f6" stroke-width="1"/>
<text x="451.2" y="612" text-anchor="middle" font-family="Arial" font-size="12" fill="#374151">2015</text>
<line x1="636.9" y1="50" x2="636.9" y2="590" stroke="#f3f4f6" stroke-width="1"/>
<text x="636.9" y="612" text-anchor="middle" font-family="Arial" font-size="12" fill="#374151">2018</text>
<line x1="822.5" y1="50" x2="822.5" y2="590" stroke="#f3f4f6" stroke-width="1"/>
<text x="822.5" y="612" text-anchor="middle" font-family="Arial" font-size="12" fill="#374151">2021</text>
<line x1="1070.0" y1="50" x2="1070.0" y2="590" stroke="#f3f4f6" stroke-width="1"/>
<text x="1070.0" y="612" text-anchor="middle" font-family="Arial" font-size="12" fill="#374151">2025</text>
<line x1="80" y1="590" x2="1070" y2="590" stroke="#111827" stroke-width="1.5"/>
<line x1="80" y1="50" x2="80" y2="590" stroke="#111827" stroke-width="1.5"/>
<text x="550.0" y="635" text-anchor="middle" font-family="Arial" font-size="14">Fiscal year</text>
<text x="20" y="325.0" transform="rotate(-90 20 325.0)" text-anchor="middle" font-family="Arial" font-size="14">Gross profit margin</text>
<polyline fill="none" stroke="#4C78A8" stroke-width="3" points="80.0,238.9 141.9,250.3 203.8,233.8 265.6,183.1 327.5,276.5 389.4,262.1 451.2,240.1 513.1,254.8 575.0,263.8 636.9,265.7 698.8,273.6 760.6,267.4 822.5,214.4 884.4,191.5 946.2,179.2 1008.1,148.2 1070.0,137.8"/>
<line x1="850" y1="50" x2="868" y2="50" stroke="#4C78A8" stroke-width="3"/>
<text x="876" y="54" font-family="Arial" font-size="13">AAPL</text>
<polyline fill="none" stroke="#F58518" stroke-width="3" points="80.0,501.5 141.9,504.9 203.8,503.4 265.6,468.9 327.5,431.9 389.4,398.2 451.2,345.0 513.1,314.3 575.0,284.8 636.9,237.3 698.8,226.2 760.6,247.4 822.5,210.6 884.4,184.1 946.2,136.6 1008.1,108.6 1070.0,87.2"/>
<line x1="850" y1="72" x2="868" y2="72" stroke="#F58518" stroke-width="3"/>
<text x="876" y="76" font-family="Arial" font-size="13">AMZN</text>
<polyline fill="none" stroke="#54A24B" stroke-width="3" points="80.0,552.8 141.9,482.7 203.8,479.1 265.6,459.3 327.5,499.4 389.4,484.1 451.2,486.6 513.1,527.0 575.0,431.6 636.9,354.7 698.8,361.8 760.6,385.4 822.5,385.6 884.4,384.2 946.2,297.4 1008.1,271.3 1070.0,333.8"/>
<line x1="850" y1="94" x2="868" y2="94" stroke="#54A24B" stroke-width="3"/>
<text x="876" y="98" font-family="Arial" font-size="13">CAT</text>
</svg>