<svg xmlns="http://www.w3.org/2000/svg" width="1130" height="548" viewBox="0 0 1130 548">
<rect width="100%" height="100%" fill="white"/>
<text x="565.0" y="30" text-anchor="middle" font-family="Arial" font-size="24" font-weight="bold">Sector Vulnerability Across Energy Inputs</text>
<text x="565.0" y="52" text-anchor="middle" font-family="Arial" font-size="13" fill="#374151">Estimated gross margin change for a +10% price shock in each fuel</text>
<text x="265.0" y="66" text-anchor="middle" font-family="Arial" font-size="12">Coal</text>
<text x="375.0" y="66" text-anchor="middle" font-family="Arial" font-size="12">CrudeOil</text>
<text x="485.0" y="66" text-anchor="middle" font-family="Arial" font-size="12">Diesel</text>
<text x="595.0" y="66" text-anchor="middle" font-family="Arial" font-size="12">Electricity</text>
<text x="705.0" y="66" text-anchor="middle" font-family="Arial" font-size="12">Gas</text>
<text x="815.0" y="66" text-anchor="middle" font-family="Arial" font-size="12">Gasoline</text>
<text x="925.0" y="66" text-anchor="middle" font-family="Arial" font-size="12">HeatingOil</text>
<text x="1035.0" y="66" text-anchor="middle" font-family="Arial" font-size="12">NaturalGas</text>
<text x="200" y="98.0" text-anchor="end" font-family="Arial" font-size="12">Energy</text>
<rect x="210" y="75" width="110" height="38" fill="#f8d9bc" stroke="#ffffff" stroke-width="1"/>
<text x="265.0" y="98.0" text-anchor="middle" font-family="Arial" font-size="11" fill="#111827">-0.009</text>
<rect x="320" y="75" width="110" height="38" fill="#f0b986" stroke="#ffffff" stroke-width="1"/>
<text x="375.0" y="98.0" text-anchor="middle" font-family="Arial" font-size="11" fill="#ffffff">-0.018</text>
<rect x="430" y="75" width="110" height="38" fill="#ecaa6e" stroke="#ffffff" stroke-width="1"/>
<text x="485.0" y="98.0" text-anchor="middle" font-family="Arial" font-size="11" fill="#ffffff">-0.022</text>
<rect x="540" y="75" width="110" height="38" fill="#e07a1f" stroke="#ffffff" stroke-width="1"/>
<text x="595.0" y="98.0" text-anchor="middle" font-family="Arial" font-size="11" fill="#ffffff">-0.036</text>
<rect x="650" y="75" width="110" height="38" fill="#e89851" stroke="#ffffff" stroke-width="1"/>
<text x="705.0" y="98.0" text-anchor="middle" font-family="Arial" font-size="11" fill="#ffffff">-0.027</text>
<rect x="760" y="75" width="110" height="38" fill="#efb580" stroke="#ffffff" stroke-width="1"/>
<text x="815.0" y="98.0" text-anchor="middle" font-family="Arial" font-size="11" fill="#ffffff">-0.019</text>
<rect x="870" y="75" width="110" height="38" fill="#f3c59b" stroke="#ffffff" stroke-width="1"/>
<text x="925.0" y="98.0" text-anchor="middle" font-family="Arial" font-size="11" fill="#111827">-0.014</text>
<rect x="980" y="75" width="110" height="38" fill="#f1be8f" stroke="#ffffff" stroke-width="1"/>
<text x="1035.0" y="98.0" text-anchor="middle" font-family="Arial" font-size="11" fill="#ffffff">-0.016</text>
<text x="200" y="136.0" text-anchor="end" font-family="Arial" font-size="12">Communication Services</text>
<rect x="210" y="113" width="110" height="38" fill="#fef5ea" stroke="#ffffff" stroke-width="1"/>
<text x="265.0" y="136.0" text-anchor="middle" font-family="Arial" font-size="11" fill="#111827">-0.001</text>
<rect x="320" y="113" width="110" height="38" fill="#fae3cd" stroke="#ffffff" stroke-width="1"/>
<text x="375.0" y="136.0" text-anchor="middle" font-family="Arial" font-size="11" fill="#111827">-0.006</text>
<rect x="430" y="113" width="110" height="38" fill="#f8ddc2" stroke="#ffffff" stroke-width="1"/>
<text x="485.0" y="136.0" text-anchor="middle" font-family="Arial" font-size="11" fill="#111827">-0.008</text>
<rect x="540" y="113" width="110" height="38" fill="#f0bc8c" stroke="#ffffff" stroke-width="1"/>
<text x="595.0" y="136.0" text-anchor="middle" font-family="Arial" font-size="11" fill="#ffffff">-0.017</text>
<rect x="650" y="113" width="110" height="38" fill="#f8dabd" stroke="#ffffff" stroke-width="1"/>
<text x="705.0" y="136.0" text-anchor="middle" font-family="Arial" font-size="11" fill="#111827">-0.008</text>
<rect x="760" y="113" width="110" height="38" fill="#fbe6d2" stroke="#ffffff" stroke-width="1"/>
<text x="815.0" y="136.0" text-anchor="middle" font-family="Arial" font-size="11" fill="#111827">-0.005</text>
<rect x="870" y="113" width="110" height="38" fill="#fce9d7" stroke="#ffffff" stroke-width="1"/>
<text x="925.0" y="136.0" text-anchor="middle" font-family="Arial" font-size="11" fill="#111827">-0.004</text>
<rect x="980" y="113" width="110" height="38" fill="#fce9d6" stroke="#ffffff" stroke-width="1"/>
<text x="1035.0" y="136.0" text-anchor="middle" font-family="Arial" font-size="11" fill="#111827">-0.004</text>
<text x="200" y="174.0" text-anchor="end" font-family="Arial" font-size="12">Utilities</text>
<rect x="210" y="151" width="110" height="38" fill="#fef1e4" stroke="#ffffff" stroke-width="1"/>
<text x="265.0" y="174.0" text-anchor="middle" font-family="Arial" font-size="11" fill="#111827">-0.002</text>
<rect x="320" y="151" width="110" height="38" fill="#fcead8" stroke="#ffffff" stroke-width="1"/>
<text x="375.0" y="174.0" text-anchor="middle" font-family="Arial" font-size="11" fill="#111827">-0.004</text>
<rect x="430" y="151" width="110" height="38" fill="#fbe6d0" stroke="#ffffff" stroke-width="1"/>
<text x="485.0" y="174.0" text-anchor="middle" font-family="Arial" font-size="11" fill="#111827">-0.005</text>
<rect x="540" y="151" width="110" height="38" fill="#fef4e8" stroke="#ffffff" stroke-width="1"/>
<text x="595.0" y="174.0" text-anchor="middle" font-family="Arial" font-size="11" fill="#111827">-0.001</text>
<rect x="650" y="151" width="110" height="38" fill="#fae1c9" stroke="#ffffff" stroke-width="1"/>
<text x="705.0" y="174.0" text-anchor="middle" font-family="Arial" font-size="11" fill="#111827">-0.006</text>
<rect x="760" y="151" width="110" height="38" fill="#fbe8d5" stroke="#ffffff" stroke-width="1"/>
<text x="815.0" y="174.0" text-anchor="middle" font-family="Arial" font-size="11" fill="#111827">-0.004</text>
<rect x="870" y="151" width="110" height="38" fill="#fcebd9" stroke="#ffffff" stroke-width="1"/>
<text x="925.0" y="174.0" text-anchor="middle" font-family="Arial" font-size="11" fill="#111827">-0.003</text>
<rect x="980" y="151" width="110" height="38" fill="#fdf0e1" stroke="#ffffff" stroke-width="1"/>
<text x="1035.0" y="174.0" text-anchor="middle" font-family="Arial" font-size="11" fill="#111827">-0.002</text>
<text x="200" y="212.0" text-anchor="end" font-family="Arial" font-size="12">Consumer Staples</text>
<rect x="210" y="189" width="110" height="38" fill="#fef2e4" stroke="#ffffff" stroke-width="1"/>
<text x="265.0" y="212.0" text-anchor="middle" font-family="Arial" font-size="11" fill="#111827">-0.002</text>
<rect x="320" y="189" width="110" height="38" fill="#fef3e6" stroke="#ffffff" stroke-width="1"/>
<text x="375.0" y="212.0" text-anchor="middle" font-family="Arial" font-size="11" fill="#111827">-0.001</text>
<rect x="430" y="189" width="110" height="38" fill="#fceddc" stroke="#ffffff" stroke-width="1"/>
<text x="485.0" y="212.0" text-anchor="middle" font-family="Arial" font-size="11" fill="#111827">-0.003</text>
<rect x="540" y="189" width="110" height="38" fill="#fef3e6" stroke="#ffffff" stroke-width="1"/>
<text x="595.0" y="212.0" text-anchor="middle" font-family="Arial" font-size="11" fill="#111827">-0.001</text>
<rect x="650" y="189" width="110" height="38" fill="#fceddc" stroke="#ffffff" stroke-width="1"/>
<text x="705.0" y="212.0" text-anchor="middle" font-family="Arial" font-size="11" fill="#111827">-0.003</text>
<rect x="760" y="189" width="110" height="38" fill="#fdf1e3" stroke="#ffffff" stroke-width="1"/>
<text x="815.0" y="212.0" text-anchor="middle" font-family="Arial" font-size="11" fill="#111827">-0.002</text>
<rect x="870" y="189" width="110" height="38" fill="#fdf0e1" stroke="#ffffff" stroke-width="1"/>
<text x="925.0" y="212.0" text-anchor="middle" font-family="Arial" font-size="11" fill="#111827">-0.002</text>
<rect x="980" y="189" width="110" height="38" fill="#fdeddd" stroke="#ffffff" stroke-width="1"/>
<text x="1035.0" y="212.0" text-anchor="middle" font-family="Arial" font-size="11" fill="#111827">-0.003</text>
<text x="200" y="250.0" text-anchor="end" font-family="Arial" font-size="12">Materials</text>
<rect x="210" y="227" width="110" height="38" fill="#fff6eb" stroke="#ffffff" stroke-width="1"/>
<text x="265.0" y="250.0" text-anchor="middle" font-family="Arial" font-size="11" fill="#111827">-0.000</text>
<rect x="320" y="227" width="110" height="38" fill="#fef4e8" stroke="#ffffff" stroke-width="1"/>
<text x="375.0" y="250.0" text-anchor="middle" font-family="Arial" font-size="11" fill="#111827">-0.001</text>
<rect x="430" y="227" width="110" height="38" fill="#fdefdf" stroke="#ffffff" stroke-width="1"/>
<text x="485.0" y="250.0" text-anchor="middle" font-family="Arial" font-size="11" fill="#111827">-0.002</text>
<rect x="540" y="227" width="110" height="38" fill="#fdeede" stroke="#ffffff" stroke-width="1"/>
<text x="595.0" y="250.0" text-anchor="middle" font-family="Arial" font-size="11" fill="#111827">-0.003</text>
<rect x="650" y="227" width="110" height="38" fill="#fdf1e3" stroke="#ffffff" stroke-width="1"/>
<text x="705.0" y="250.0" text-anchor="middle" font-family="Arial" font-size="11" fill="#111827">-0.002</text>
<rect x="760" y="227" width="110" height="38" fill="#fef5e9" stroke="#ffffff" stroke-width="1"/>
<text x="815.0" y="250.0" text-anchor="middle" font-family="Arial" font-size="11" fill="#111827">-0.001</text>
<rect x="870" y="227" width="110" height="38" fill="#fef3e6" stroke="#ffffff" stroke-width="1"/>
<text x="925.0" y="250.0" text-anchor="middle" font-family="Arial" font-size="11" fill="#111827">-0.001</text>
<rect x="980" y="227" width="110" height="38" fill="#eaf2fb" stroke="#ffffff" stroke-width="1"/>
<text x="1035.0" y="250.0" text-anchor="middle" font-family="Arial" font-size="11" fill="#111827">0.000</text>
<text x="200" y="288.0" text-anchor="end" font-family="Arial" font-size="12">Industrials</text>
<rect x="210" y="265" width="110" height="38" fill="#fef4e8" stroke="#ffffff" stroke-width="1"/>
<text x="265.0" y="288.0" text-anchor="middle" font-family="Arial" font-size="11" fill="#111827">-0.001</text>
<rect x="320" y="265" width="110" height="38" fill="#fef4e9" stroke="#ffffff" stroke-width="1"/>
<text x="375.0" y="288.0" text-anchor="middle" font-family="Arial" font-size="11" fill="#111827">-0.001</text>
<rect x="430" y="265" width="110" height="38" fill="#fdf1e3" stroke="#ffffff" stroke-width="1"/>
<text x="485.0" y="288.0" text-anchor="middle" font-family="Arial" font-size="11" fill="#111827">-0.002</text>
<rect x="540" y="265" width="110" height="38" fill="#22507b" stroke="#ffffff" stroke-width="1"/>
<text x="595.0" y="288.0" text-anchor="middle" font-family="Arial" font-size="11" fill="#111827">0.014</text>
<rect x="650" y="265" width="110" height="38" fill="#fef2e5" stroke="#ffffff" stroke-width="1"/>
<text x="705.0" y="288.0" text-anchor="middle" font-family="Arial" font-size="11" fill="#111827">-0.001</text>
<rect x="760" y="265" width="110" height="38" fill="#fef5e9" stroke="#ffffff" stroke-width="1"/>
<text x="815.0" y="288.0" text-anchor="middle" font-family="Arial" font-size="11" fill="#111827">-0.001</text>
<rect x="870" y="265" width="110" height="38" fill="#fef3e7" stroke="#ffffff" stroke-width="1"/>
<text x="925.0" y="288.0" text-anchor="middle" font-family="Arial" font-size="11" fill="#111827">-0.001</text>
<rect x="980" y="265" width="110" height="38" fill="#fef4e9" stroke="#ffffff" stroke-width="1"/>
<text x="1035.0" y="288.0" text-anchor="middle" font-family="Arial" font-size="11" fill="#111827">-0.001</text>
<text x="200" y="326.0" text-anchor="end" font-family="Arial" font-size="12">Information Technology</text>
<rect x="210" y="303" width="110" height="38" fill="#eaf2fc" stroke="#ffffff" stroke-width="1"/>
<text x="265.0" y="326.0" text-anchor="middle" font-family="Arial" font-size="11" fill="#111827">0.000</text>
<rect x="320" y="303" width="110" height="38" fill="#fef4e9" stroke="#ffffff" stroke-width="1"/>
<text x="375.0" y="326.0" text-anchor="middle" font-family="Arial" font-size="11" fill="#111827">-0.001</text>
<rect x="430" y="303" width="110" height="38" fill="#fef2e5" stroke="#ffffff" stroke-width="1"/>
<text x="485.0" y="326.0" text-anchor="middle" font-family="Arial" font-size="11" fill="#111827">-0.001</text>
<rect x="540" y="303" width="110" height="38" fill="#fdf0e1" stroke="#ffffff" stroke-width="1"/>
<text x="595.0" y="326.0" text-anchor="middle" font-family="Arial" font-size="11" fill="#111827">-0.002</text>
<rect x="650" y="303" width="110" height="38" fill="#fdf0e1" stroke="#ffffff" stroke-width="1"/>
<text x="705.0" y="326.0" text-anchor="middle" font-family="Arial" font-size="11" fill="#111827">-0.002</text>
<rect x="760" y="303" width="110" height="38" fill="#fef4e7" stroke="#ffffff" stroke-width="1"/>
<text x="815.0" y="326.0" text-anchor="middle" font-family="Arial" font-size="11" fill="#111827">-0.001</text>
<rect x="870" y="303" width="110" height="38" fill="#fff5ea" stroke="#ffffff" stroke-width="1"/>
<text x="925.0" y="326.0" text-anchor="middle" font-family="Arial" font-size="11" fill="#111827">-0.001</text>
<rect x="980" y="303" width="110" height="38" fill="#edf4fe" stroke="#ffffff" stroke-width="1"/>
<text x="1035.0" y="326.0" text-anchor="middle" font-family="Arial" font-size="11" fill="#111827">0.000</text>
<text x="200" y="364.0" text-anchor="end" font-family="Arial" font-size="12">Health Care</text>
<rect x="210" y="341" width="110" height="38" fill="#e0eaf6" stroke="#ffffff" stroke-width="1"/>
<text x="265.0" y="364.0" text-anchor="middle" font-family="Arial" font-size="11" fill="#111827">0.001</text>
<rect x="320" y="341" width="110" height="38" fill="#c6d5e5" stroke="#ffffff" stroke-width="1"/>
<text x="375.0" y="364.0" text-anchor="middle" font-family="Arial" font-size="11" fill="#111827">0.003</text>
<rect x="430" y="341" width="110" height="38" fill="#ccdae9" stroke="#ffffff" stroke-width="1"/>
<text x="485.0" y="364.0" text-anchor="middle" font-family="Arial" font-size="11" fill="#111827">0.002</text>
<rect x="540" y="341" width="110" height="38" fill="#fdeede" stroke="#ffffff" stroke-width="1"/>
<text x="595.0" y="364.0" text-anchor="middle" font-family="Arial" font-size="11" fill="#111827">-0.003</text>
<rect x="650" y="341" width="110" height="38" fill="#b3c5d8" stroke="#ffffff" stroke-width="1"/>
<text x="705.0" y="364.0" text-anchor="middle" font-family="Arial" font-size="11" fill="#111827">0.004</text>
<rect x="760" y="341" width="110" height="38" fill="#c2d2e2" stroke="#ffffff" stroke-width="1"/>
<text x="815.0" y="364.0" text-anchor="middle" font-family="Arial" font-size="11" fill="#111827">0.003</text>
<rect x="870" y="341" width="110" height="38" fill="#d7e3f0" stroke="#ffffff" stroke-width="1"/>
<text x="925.0" y="364.0" text-anchor="middle" font-family="Arial" font-size="11" fill="#111827">0.002</text>
<rect x="980" y="341" width="110" height="38" fill="#d9e4f1" stroke="#ffffff" stroke-width="1"/>
<text x="1035.0" y="364.0" text-anchor="middle" font-family="Arial" font-size="11" fill="#111827">0.001</text>
<text x="200" y="402.0" text-anchor="end" font-family="Arial" font-size="12">Financials</text>
<rect x="210" y="379" width="110" height="38" fill="#eef5ff" stroke="#ffffff" stroke-width="1"/>
<text x="265.0" y="402.0" text-anchor="middle" font-family="Arial" font-size="11" fill="#111827">0.000</text>
<rect x="320" y="379" width="110" height="38" fill="#fff7ed" stroke="#ffffff" stroke-width="1"/>
<text x="375.0" y="402.0" text-anchor="middle" font-family="Arial" font-size="11" fill="#111827">-0.000</text>
<rect x="430" y="379" width="110" height="38" fill="#fef1e4" stroke="#ffffff" stroke-width="1"/>
<text x="485.0" y="402.0" text-anchor="middle" font-family="Arial" font-size="11" fill="#111827">-0.002</text>
<rect x="540" y="379" width="110" height="38" fill="#1f4e79" stroke="#ffffff" stroke-width="1"/>
<text x="595.0" y="402.0" text-anchor="middle" font-family="Arial" font-size="11" fill="#111827">0.014</text>
<rect x="650" y="379" width="110" height="38" fill="#fef3e6" stroke="#ffffff" stroke-width="1"/>
<text x="705.0" y="402.0" text-anchor="middle" font-family="Arial" font-size="11" fill="#111827">-0.001</text>
<rect x="760" y="379" width="110" height="38" fill="#e4edf8" stroke="#ffffff" stroke-width="1"/>
<text x="815.0" y="402.0" text-anchor="middle" font-family="Arial" font-size="11" fill="#111827">0.001</text>
<rect x="870" y="379" width="110" height="38" fill="#edf5fe" stroke="#ffffff" stroke-width="1"/>
<text x="925.0" y="402.0" text-anchor="middle" font-family="Arial" font-size="11" fill="#111827">0.000</text>
<rect x="980" y="379" width="110" height="38" fill="#aec2d5" stroke="#ffffff" stroke-width="1"/>
<text x="1035.0" y="402.0" text-anchor="middle" font-family="Arial" font-size="11" fill="#111827">0.004</text>
<text x="200" y="440.0" text-anchor="end" font-family="Arial" font-size="12">Real Estate</text>
<rect x="210" y="417" width="110" height="38" fill="#fff6ec" stroke="#ffffff" stroke-width="1"/>
<text x="265.0" y="440.0" text-anchor="middle" font-family="Arial" font-size="11" fill="#111827">-0.000</text>
<rect x="320" y="417" width="110" height="38" fill="#d3dfed" stroke="#ffffff" stroke-width="1"/>
<text x="375.0" y="440.0" text-anchor="middle" font-family="Arial" font-size="11" fill="#111827">0.002</text>
<rect x="430" y="417" width="110" height="38" fill="#7997b3" stroke="#ffffff" stroke-width="1"/>
<text x="485.0" y="440.0" text-anchor="middle" font-family="Arial" font-size="11" fill="#111827">0.008</text>
<rect x="540" y="417" width="110" height="38" fill="#5f82a2" stroke="#ffffff" stroke-width="1"/>
<text x="595.0" y="440.0" text-anchor="middle" font-family="Arial" font-size="11" fill="#111827">0.010</text>
<rect x="650" y="417" width="110" height="38" fill="#587c9e" stroke="#ffffff" stroke-width="1"/>
<text x="705.0" y="440.0" text-anchor="middle" font-family="Arial" font-size="11" fill="#111827">0.010</text>
<rect x="760" y="417" width="110" height="38" fill="#a5bacf" stroke="#ffffff" stroke-width="1"/>
<text x="815.0" y="440.0" text-anchor="middle" font-family="Arial" font-size="11" fill="#111827">0.005</text>
<rect x="870" y="417" width="110" height="38" fill="#baccdd" stroke="#ffffff" stroke-width="1"/>
<text x="925.0" y="440.0" text-anchor="middle" font-family="Arial" font-size="11" fill="#111827">0.004</text>
<rect x="980" y="417" width="110" height="38" fill="#fdefe1" stroke="#ffffff" stroke-width="1"/>
<text x="1035.0" y="440.0" text-anchor="middle" font-family="Arial" font-size="11" fill="#111827">-0.002</text>
<text x="200" y="478.0" text-anchor="end" font-family="Arial" font-size="12">Consumer Discretionary</text>
<rect x="210" y="455" width="110" height="38" fill="#dfe9f5" stroke="#ffffff" stroke-width="1"/>
<text x="265.0" y="478.0" text-anchor="middle" font-family="Arial" font-size="11" fill="#111827">0.001</text>
<rect x="320" y="455" width="110" height="38" fill="#a5bacf" stroke="#ffffff" stroke-width="1"/>
<text x="375.0" y="478.0" text-anchor="middle" font-family="Arial" font-size="11" fill="#111827">0.005</text>
<rect x="430" y="455" width="110" height="38" fill="#b7c9db" stroke="#ffffff" stroke-width="1"/>
<text x="485.0" y="478.0" text-anchor="middle" font-family="Arial" font-size="11" fill="#111827">0.004</text>
<rect x="540" y="455" width="110" height="38" fill="#becedf" stroke="#ffffff" stroke-width="1"/>
<text x="595.0" y="478.0" text-anchor="middle" font-family="Arial" font-size="11" fill="#111827">0.003</text>
<rect x="650" y="455" width="110" height="38" fill="#99b1c8" stroke="#ffffff" stroke-width="1"/>
<text x="705.0" y="478.0" text-anchor="middle" font-family="Arial" font-size="11" fill="#111827">0.006</text>
<rect x="760" y="455" width="110" height="38" fill="#adc0d4" stroke="#ffffff" stroke-width="1"/>
<text x="815.0" y="478.0" text-anchor="middle" font-family="Arial" font-size="11" fill="#111827">0.005</text>
<rect x="870" y="455" width="110" height="38" fill="#c6d5e5" stroke="#ffffff" stroke-width="1"/>
<text x="925.0" y="478.0" text-anchor="middle" font-family="Arial" font-size="11" fill="#111827">0.003</text>
<rect x="980" y="455" width="110" height="38" fill="#c6d5e5" stroke="#ffffff" stroke-width="1"/>
<text x="1035.0" y="478.0" text-anchor="middle" font-family="Arial" font-size="11" fill="#111827">0.003</text>
</svg>