<svg xmlns="http://www.w3.org/2000/svg" width="1120" height="760" viewBox="0 0 1120 760">
<rect width="100%" height="100%" fill="white"/>
<text x="560.0" y="30" text-anchor="middle" font-family="Arial" font-size="24" font-weight="bold">Sector-Year Margin Change vs Natural Gas Price Change</text>
<line x1="90" y1="690.0" x2="900" y2="690.0" stroke="#e5e7eb" stroke-width="1"/>
<text x="80" y="694.0" text-anchor="end" font-family="Arial" font-size="12">-0.17</text>
<line x1="90" y1="532.5" x2="900" y2="532.5" stroke="#e5e7eb" stroke-width="1"/>
<text x="80" y="536.5" text-anchor="end" font-family="Arial" font-size="12">-0.06</text>
<line x1="90" y1="375.0" x2="900" y2="375.0" stroke="#e5e7eb" stroke-width="1"/>
<text x="80" y="379.0" text-anchor="end" font-family="Arial" font-size="12">0.05</text>
<line x1="90" y1="217.5" x2="900" y2="217.5" stroke="#e5e7eb" stroke-width="1"/>
<text x="80" y="221.5" text-anchor="end" font-family="Arial" font-size="12">0.16</text>
<line x1="90" y1="60.0" x2="900" y2="60.0" stroke="#e5e7eb" stroke-width="1"/>
<text x="80" y="64.0" text-anchor="end" font-family="Arial" font-size="12">0.27</text>
<line x1="90.0" y1="60" x2="90.0" y2="690" stroke="#f3f4f6" stroke-width="1"/>
<text x="90.0" y="712" text-anchor="middle" font-family="Arial" font-size="12">-4.39</text>
<line x1="292.5" y1="60" x2="292.5" y2="690" stroke="#f3f4f6" stroke-width="1"/>
<text x="292.5" y="712" text-anchor="middle" font-family="Arial" font-size="12">-2.54</text>
<line x1="495.0" y1="60" x2="495.0" y2="690" stroke="#f3f4f6" stroke-width="1"/>
<text x="495.0" y="712" text-anchor="middle" font-family="Arial" font-size="12">-0.69</text>
<line x1="697.5" y1="60" x2="697.5" y2="690" stroke="#f3f4f6" stroke-width="1"/>
<text x="697.5" y="712" text-anchor="middle" font-family="Arial" font-size="12">1.17</text>
<line x1="900.0" y1="60" x2="900.0" y2="690" stroke="#f3f4f6" stroke-width="1"/>
<text x="900.0" y="712" text-anchor="middle" font-family="Arial" font-size="12">3.02</text>
<line x1="570.0" y1="60" x2="570.0" y2="690" stroke="#111827" stroke-dasharray="4 4" stroke-width="1.2"/>
<line x1="90" y1="445.4" x2="900" y2="445.4" stroke="#111827" stroke-dasharray="4 4" stroke-width="1.2"/>
<line x1="90" y1="690" x2="900" y2="690" stroke="#111827" stroke-width="1.5"/>
<line x1="90" y1="60" x2="90" y2="690" stroke="#111827" stroke-width="1.5"/>
<text x="495.0" y="742" text-anchor="middle" font-family="Arial" font-size="14">Annual natural gas price change</text>
<text x="22" y="380.0" transform="rotate(-90 22 380.0)" text-anchor="middle" font-family="Arial" font-size="14">Annual sector median gross margin change</text>
<circle cx="617.8" cy="366.9" r="4.2" fill="#1f4e79" fill-opacity="0.78"/>
<circle cx="527.7" cy="429.2" r="4.2" fill="#1f4e79" fill-opacity="0.78"/>
<circle cx="433.7" cy="495.3" r="4.2" fill="#1f4e79" fill-opacity="0.78"/>
<circle cx="676.6" cy="437.3" r="4.2" fill="#1f4e79" fill-opacity="0.78"/>
<circle cx="642.4" cy="643.9" r="4.2" fill="#1f4e79" fill-opacity="0.78"/>
<circle cx="377.5" cy="185.1" r="4.2" fill="#1f4e79" fill-opacity="0.78"/>
<circle cx="557.4" cy="443.4" r="4.2" fill="#1f4e79" fill-opacity="0.78"/>
<circle cx="621.4" cy="397.6" r="4.2" fill="#1f4e79" fill-opacity="0.78"/>
<circle cx="589.7" cy="414.5" r="4.2" fill="#1f4e79" fill-opacity="0.78"/>
<circle cx="504.3" cy="449.1" r="4.2" fill="#1f4e79" fill-opacity="0.78"/>
<circle cx="511.8" cy="427.2" r="4.2" fill="#1f4e79" fill-opacity="0.78"/>
<circle cx="774.8" cy="438.8" r="4.2" fill="#1f4e79" fill-opacity="0.78"/>
<circle cx="844.1" cy="461.7" r="4.2" fill="#1f4e79" fill-opacity="0.78"/>
<circle cx="145.9" cy="412.8" r="4.2" fill="#1f4e79" fill-opacity="0.78"/>
<circle cx="532.5" cy="402.9" r="4.2" fill="#1f4e79" fill-opacity="0.78"/>
<circle cx="715.6" cy="414.7" r="4.2" fill="#1f4e79" fill-opacity="0.78"/>
<circle cx="617.8" cy="377.6" r="4.2" fill="#e07a1f" fill-opacity="0.78"/>
<circle cx="527.7" cy="453.6" r="4.2" fill="#e07a1f" fill-opacity="0.78"/>
<circle cx="433.7" cy="445.2" r="4.2" fill="#e07a1f" fill-opacity="0.78"/>
<circle cx="676.6" cy="442.8" r="4.2" fill="#e07a1f" fill-opacity="0.78"/>
<circle cx="642.4" cy="395.2" r="4.2" fill="#e07a1f" fill-opacity="0.78"/>
<circle cx="377.5" cy="478.9" r="4.2" fill="#e07a1f" fill-opacity="0.78"/>
<circle cx="557.4" cy="402.2" r="4.2" fill="#e07a1f" fill-opacity="0.78"/>
<circle cx="621.4" cy="422.4" r="4.2" fill="#e07a1f" fill-opacity="0.78"/>
<circle cx="589.7" cy="395.2" r="4.2" fill="#e07a1f" fill-opacity="0.78"/>
<circle cx="504.3" cy="439.4" r="4.2" fill="#e07a1f" fill-opacity="0.78"/>
<circle cx="511.8" cy="516.8" r="4.2" fill="#e07a1f" fill-opacity="0.78"/>
<circle cx="774.8" cy="382.4" r="4.2" fill="#e07a1f" fill-opacity="0.78"/>
<circle cx="844.1" cy="448.8" r="4.2" fill="#e07a1f" fill-opacity="0.78"/>
<circle cx="145.9" cy="441.8" r="4.2" fill="#e07a1f" fill-opacity="0.78"/>
<circle cx="532.5" cy="396.9" r="4.2" fill="#e07a1f" fill-opacity="0.78"/>
<circle cx="715.6" cy="412.9" r="4.2" fill="#e07a1f" fill-opacity="0.78"/>
<circle cx="617.8" cy="464.8" r="4.2" fill="#2a9d8f" fill-opacity="0.78"/>
<circle cx="527.7" cy="442.6" r="4.2" fill="#2a9d8f" fill-opacity="0.78"/>
<circle cx="433.7" cy="412.1" r="4.2" fill="#2a9d8f" fill-opacity="0.78"/>
<circle cx="676.6" cy="448.3" r="4.2" fill="#2a9d8f" fill-opacity="0.78"/>
<circle cx="642.4" cy="422.3" r="4.2" fill="#2a9d8f" fill-opacity="0.78"/>
<circle cx="377.5" cy="444.5" r="4.2" fill="#2a9d8f" fill-opacity="0.78"/>
<circle cx="557.4" cy="442.3" r="4.2" fill="#2a9d8f" fill-opacity="0.78"/>
<circle cx="621.4" cy="448.3" r="4.2" fill="#2a9d8f" fill-opacity="0.78"/>
<circle cx="589.7" cy="375.3" r="4.2" fill="#2a9d8f" fill-opacity="0.78"/>
<circle cx="504.3" cy="497.9" r="4.2" fill="#2a9d8f" fill-opacity="0.78"/>
<circle cx="511.8" cy="432.0" r="4.2" fill="#2a9d8f" fill-opacity="0.78"/>
<circle cx="774.8" cy="467.7" r="4.2" fill="#2a9d8f" fill-opacity="0.78"/>
<circle cx="844.1" cy="495.7" r="4.2" fill="#2a9d8f" fill-opacity="0.78"/>
<circle cx="145.9" cy="413.0" r="4.2" fill="#2a9d8f" fill-opacity="0.78"/>
<circle cx="532.5" cy="432.7" r="4.2" fill="#2a9d8f" fill-opacity="0.78"/>
<circle cx="715.6" cy="489.2" r="4.2" fill="#2a9d8f" fill-opacity="0.78"/>
<circle cx="617.8" cy="476.9" r="4.2" fill="#c0392b" fill-opacity="0.78"/>
<circle cx="527.7" cy="443.0" r="4.2" fill="#c0392b" fill-opacity="0.78"/>
<circle cx="433.7" cy="409.8" r="4.2" fill="#c0392b" fill-opacity="0.78"/>
<circle cx="676.6" cy="486.7" r="4.2" fill="#c0392b" fill-opacity="0.78"/>
<circle cx="642.4" cy="423.0" r="4.2" fill="#c0392b" fill-opacity="0.78"/>
<circle cx="377.5" cy="303.7" r="4.2" fill="#c0392b" fill-opacity="0.78"/>
<circle cx="557.4" cy="447.6" r="4.2" fill="#c0392b" fill-opacity="0.78"/>
<circle cx="621.4" cy="523.3" r="4.2" fill="#c0392b" fill-opacity="0.78"/>
<circle cx="589.7" cy="395.8" r="4.2" fill="#c0392b" fill-opacity="0.78"/>
<circle cx="504.3" cy="332.2" r="4.2" fill="#c0392b" fill-opacity="0.78"/>
<circle cx="511.8" cy="347.4" r="4.2" fill="#c0392b" fill-opacity="0.78"/>
<circle cx="774.8" cy="646.6" r="4.2" fill="#c0392b" fill-opacity="0.78"/>
<circle cx="844.1" cy="528.5" r="4.2" fill="#c0392b" fill-opacity="0.78"/>
<circle cx="145.9" cy="269.1" r="4.2" fill="#c0392b" fill-opacity="0.78"/>
<circle cx="532.5" cy="359.0" r="4.2" fill="#c0392b" fill-opacity="0.78"/>
<circle cx="715.6" cy="560.3" r="4.2" fill="#c0392b" fill-opacity="0.78"/>
<circle cx="617.8" cy="517.6" r="4.2" fill="#7b61ff" fill-opacity="0.78"/>
<circle cx="527.7" cy="524.7" r="4.2" fill="#7b61ff" fill-opacity="0.78"/>
<circle cx="433.7" cy="386.8" r="4.2" fill="#7b61ff" fill-opacity="0.78"/>
<circle cx="676.6" cy="365.2" r="4.2" fill="#7b61ff" fill-opacity="0.78"/>
<circle cx="642.4" cy="444.8" r="4.2" fill="#7b61ff" fill-opacity="0.78"/>
<circle cx="377.5" cy="412.2" r="4.2" fill="#7b61ff" fill-opacity="0.78"/>
<circle cx="557.4" cy="444.8" r="4.2" fill="#7b61ff" fill-opacity="0.78"/>
<circle cx="621.4" cy="448.6" r="4.2" fill="#7b61ff" fill-opacity="0.78"/>
<circle cx="589.7" cy="476.1" r="4.2" fill="#7b61ff" fill-opacity="0.78"/>
<circle cx="504.3" cy="439.5" r="4.2" fill="#7b61ff" fill-opacity="0.78"/>
<circle cx="511.8" cy="556.5" r="4.2" fill="#7b61ff" fill-opacity="0.78"/>
<circle cx="774.8" cy="353.7" r="4.2" fill="#7b61ff" fill-opacity="0.78"/>
<circle cx="844.1" cy="453.5" r="4.2" fill="#7b61ff" fill-opacity="0.78"/>
<circle cx="145.9" cy="351.1" r="4.2" fill="#7b61ff" fill-opacity="0.78"/>
<circle cx="532.5" cy="616.5" r="4.2" fill="#7b61ff" fill-opacity="0.78"/>
<circle cx="715.6" cy="284.2" r="4.2" fill="#7b61ff" fill-opacity="0.78"/>
<circle cx="617.8" cy="450.9" r="4.2" fill="#8d6e63" fill-opacity="0.78"/>
<circle cx="527.7" cy="424.0" r="4.2" fill="#8d6e63" fill-opacity="0.78"/>
<circle cx="433.7" cy="443.1" r="4.2" fill="#8d6e63" fill-opacity="0.78"/>
<circle cx="676.6" cy="438.4" r="4.2" fill="#8d6e63" fill-opacity="0.78"/>
<circle cx="642.4" cy="472.9" r="4.2" fill="#8d6e63" fill-opacity="0.78"/>
<circle cx="377.5" cy="453.8" r="4.2" fill="#8d6e63" fill-opacity="0.78"/>
<circle cx="557.4" cy="447.9" r="4.2" fill="#8d6e63" fill-opacity="0.78"/>
<circle cx="621.4" cy="434.1" r="4.2" fill="#8d6e63" fill-opacity="0.78"/>
<circle cx="589.7" cy="443.3" r="4.2" fill="#8d6e63" fill-opacity="0.78"/>
<circle cx="504.3" cy="445.1" r="4.2" fill="#8d6e63" fill-opacity="0.78"/>
<circle cx="511.8" cy="446.3" r="4.2" fill="#8d6e63" fill-opacity="0.78"/>
<circle cx="774.8" cy="391.2" r="4.2" fill="#8d6e63" fill-opacity="0.78"/>
<circle cx="844.1" cy="458.0" r="4.2" fill="#8d6e63" fill-opacity="0.78"/>
<circle cx="145.9" cy="472.8" r="4.2" fill="#8d6e63" fill-opacity="0.78"/>
<circle cx="532.5" cy="437.5" r="4.2" fill="#8d6e63" fill-opacity="0.78"/>
<circle cx="715.6" cy="452.7" r="4.2" fill="#8d6e63" fill-opacity="0.78"/>
<circle cx="617.8" cy="461.8" r="4.2" fill="#d81b60" fill-opacity="0.78"/>
<circle cx="527.7" cy="470.6" r="4.2" fill="#d81b60" fill-opacity="0.78"/>
<circle cx="433.7" cy="436.9" r="4.2" fill="#d81b60" fill-opacity="0.78"/>
<circle cx="676.6" cy="448.0" r="4.2" fill="#d81b60" fill-opacity="0.78"/>
<circle cx="642.4" cy="427.3" r="4.2" fill="#d81b60" fill-opacity="0.78"/>
<circle cx="377.5" cy="461.1" r="4.2" fill="#d81b60" fill-opacity="0.78"/>
<circle cx="557.4" cy="474.7" r="4.2" fill="#d81b60" fill-opacity="0.78"/>
<circle cx="621.4" cy="403.4" r="4.2" fill="#d81b60" fill-opacity="0.78"/>
<circle cx="589.7" cy="479.1" r="4.2" fill="#d81b60" fill-opacity="0.78"/>
<circle cx="504.3" cy="422.7" r="4.2" fill="#d81b60" fill-opacity="0.78"/>
<circle cx="511.8" cy="449.9" r="4.2" fill="#d81b60" fill-opacity="0.78"/>
<circle cx="774.8" cy="440.4" r="4.2" fill="#d81b60" fill-opacity="0.78"/>
<circle cx="844.1" cy="461.6" r="4.2" fill="#d81b60" fill-opacity="0.78"/>
<circle cx="145.9" cy="403.0" r="4.2" fill="#d81b60" fill-opacity="0.78"/>
<circle cx="532.5" cy="432.4" r="4.2" fill="#d81b60" fill-opacity="0.78"/>
<circle cx="715.6" cy="448.4" r="4.2" fill="#d81b60" fill-opacity="0.78"/>
<circle cx="617.8" cy="473.0" r="4.2" fill="#00897b" fill-opacity="0.78"/>
<circle cx="527.7" cy="489.1" r="4.2" fill="#00897b" fill-opacity="0.78"/>
<circle cx="433.7" cy="424.7" r="4.2" fill="#00897b" fill-opacity="0.78"/>
<circle cx="676.6" cy="421.4" r="4.2" fill="#00897b" fill-opacity="0.78"/>
<circle cx="642.4" cy="474.3" r="4.2" fill="#00897b" fill-opacity="0.78"/>
<circle cx="377.5" cy="391.1" r="4.2" fill="#00897b" fill-opacity="0.78"/>
<circle cx="557.4" cy="456.6" r="4.2" fill="#00897b" fill-opacity="0.78"/>
<circle cx="621.4" cy="443.8" r="4.2" fill="#00897b" fill-opacity="0.78"/>
<circle cx="589.7" cy="418.6" r="4.2" fill="#00897b" fill-opacity="0.78"/>
<circle cx="504.3" cy="467.9" r="4.2" fill="#00897b" fill-opacity="0.78"/>
<circle cx="511.8" cy="435.2" r="4.2" fill="#00897b" fill-opacity="0.78"/>
<circle cx="774.8" cy="433.1" r="4.2" fill="#00897b" fill-opacity="0.78"/>
<circle cx="844.1" cy="430.1" r="4.2" fill="#00897b" fill-opacity="0.78"/>
<circle cx="145.9" cy="458.8" r="4.2" fill="#00897b" fill-opacity="0.78"/>
<circle cx="532.5" cy="448.8" r="4.2" fill="#00897b" fill-opacity="0.78"/>
<circle cx="715.6" cy="453.7" r="4.2" fill="#00897b" fill-opacity="0.78"/>
<circle cx="617.8" cy="476.8" r="4.2" fill="#5e35b1" fill-opacity="0.78"/>
<circle cx="527.7" cy="446.9" r="4.2" fill="#5e35b1" fill-opacity="0.78"/>
<circle cx="433.7" cy="460.1" r="4.2" fill="#5e35b1" fill-opacity="0.78"/>
<circle cx="676.6" cy="437.8" r="4.2" fill="#5e35b1" fill-opacity="0.78"/>
<circle cx="642.4" cy="442.7" r="4.2" fill="#5e35b1" fill-opacity="0.78"/>
<circle cx="377.5" cy="403.8" r="4.2" fill="#5e35b1" fill-opacity="0.78"/>
<circle cx="557.4" cy="472.1" r="4.2" fill="#5e35b1" fill-opacity="0.78"/>
<circle cx="621.4" cy="452.8" r="4.2" fill="#5e35b1" fill-opacity="0.78"/>
<circle cx="589.7" cy="454.5" r="4.2" fill="#5e35b1" fill-opacity="0.78"/>
<circle cx="504.3" cy="443.0" r="4.2" fill="#5e35b1" fill-opacity="0.78"/>
<circle cx="511.8" cy="436.2" r="4.2" fill="#5e35b1" fill-opacity="0.78"/>
<circle cx="774.8" cy="408.4" r="4.2" fill="#5e35b1" fill-opacity="0.78"/>
<circle cx="844.1" cy="470.1" r="4.2" fill="#5e35b1" fill-opacity="0.78"/>
<circle cx="145.9" cy="452.7" r="4.2" fill="#5e35b1" fill-opacity="0.78"/>
<circle cx="532.5" cy="434.4" r="4.2" fill="#5e35b1" fill-opacity="0.78"/>
<circle cx="715.6" cy="433.1" r="4.2" fill="#5e35b1" fill-opacity="0.78"/>
<circle cx="527.7" cy="103.4" r="4.2" fill="#6d4c41" fill-opacity="0.78"/>
<circle cx="433.7" cy="400.4" r="4.2" fill="#6d4c41" fill-opacity="0.78"/>
<circle cx="676.6" cy="432.1" r="4.2" fill="#6d4c41" fill-opacity="0.78"/>
<circle cx="642.4" cy="419.7" r="4.2" fill="#6d4c41" fill-opacity="0.78"/>
<circle cx="377.5" cy="427.3" r="4.2" fill="#6d4c41" fill-opacity="0.78"/>
<circle cx="557.4" cy="457.3" r="4.2" fill="#6d4c41" fill-opacity="0.78"/>
<circle cx="621.4" cy="444.4" r="4.2" fill="#6d4c41" fill-opacity="0.78"/>
<circle cx="589.7" cy="448.7" r="4.2" fill="#6d4c41" fill-opacity="0.78"/>
<circle cx="504.3" cy="408.0" r="4.2" fill="#6d4c41" fill-opacity="0.78"/>
<circle cx="511.8" cy="436.2" r="4.2" fill="#6d4c41" fill-opacity="0.78"/>
<circle cx="774.8" cy="451.3" r="4.2" fill="#6d4c41" fill-opacity="0.78"/>
<circle cx="844.1" cy="444.8" r="4.2" fill="#6d4c41" fill-opacity="0.78"/>
<circle cx="145.9" cy="452.7" r="4.2" fill="#6d4c41" fill-opacity="0.78"/>
<circle cx="532.5" cy="444.2" r="4.2" fill="#6d4c41" fill-opacity="0.78"/>
<circle cx="715.6" cy="435.3" r="4.2" fill="#6d4c41" fill-opacity="0.78"/>
<circle cx="433.7" cy="494.1" r="4.2" fill="#3949ab" fill-opacity="0.78"/>
<circle cx="676.6" cy="446.0" r="4.2" fill="#3949ab" fill-opacity="0.78"/>
<circle cx="642.4" cy="479.6" r="4.2" fill="#3949ab" fill-opacity="0.78"/>
<circle cx="377.5" cy="429.3" r="4.2" fill="#3949ab" fill-opacity="0.78"/>
<circle cx="557.4" cy="463.0" r="4.2" fill="#3949ab" fill-opacity="0.78"/>
<circle cx="621.4" cy="368.1" r="4.2" fill="#3949ab" fill-opacity="0.78"/>
<circle cx="589.7" cy="437.5" r="4.2" fill="#3949ab" fill-opacity="0.78"/>
<circle cx="504.3" cy="458.3" r="4.2" fill="#3949ab" fill-opacity="0.78"/>
<circle cx="511.8" cy="377.5" r="4.2" fill="#3949ab" fill-opacity="0.78"/>
<circle cx="774.8" cy="495.3" r="4.2" fill="#3949ab" fill-opacity="0.78"/>
<circle cx="844.1" cy="503.7" r="4.2" fill="#3949ab" fill-opacity="0.78"/>
<circle cx="145.9" cy="451.5" r="4.2" fill="#3949ab" fill-opacity="0.78"/>
<circle cx="532.5" cy="458.4" r="4.2" fill="#3949ab" fill-opacity="0.78"/>
<circle cx="715.6" cy="456.3" r="4.2" fill="#3949ab" fill-opacity="0.78"/>
<circle cx="920" cy="70" r="5" fill="#1f4e79"/>
<text x="932" y="74" font-family="Arial" font-size="12">Communication Services</text>
<circle cx="920" cy="92" r="5" fill="#e07a1f"/>
<text x="932" y="96" font-family="Arial" font-size="12">Consumer Discretionary</text>
<circle cx="920" cy="114" r="5" fill="#2a9d8f"/>
<text x="932" y="118" font-family="Arial" font-size="12">Consumer Staples</text>
<circle cx="920" cy="136" r="5" fill="#c0392b"/>
<text x="932" y="140" font-family="Arial" font-size="12">Energy</text>
<circle cx="920" cy="158" r="5" fill="#7b61ff"/>
<text x="932" y="162" font-family="Arial" font-size="12">Financials</text>
<circle cx="920" cy="180" r="5" fill="#8d6e63"/>
<text x="932" y="184" font-family="Arial" font-size="12">Health Care</text>
<circle cx="920" cy="202" r="5" fill="#d81b60"/>
<text x="932" y="206" font-family="Arial" font-size="12">Industrials</text>
<circle cx="920" cy="224" r="5" fill="#00897b"/>
<text x="932" y="228" font-family="Arial" font-size="12">Information Technology</text>
<circle cx="920" cy="246" r="5" fill="#5e35b1"/>
<text x="932" y="250" font-family="Arial" font-size="12">Materials</text>
<circle cx="920" cy="268" r="5" fill="#6d4c41"/>
<text x="932" y="272" font-family="Arial" font-size="12">Real Estate</text>
<circle cx="920" cy="290" r="5" fill="#3949ab"/>
<text x="932" y="294" font-family="Arial" font-size="12">Utilities</text>
</svg>