<svg xmlns="http://www.w3.org/2000/svg" width="1120" height="760" viewBox="0 0 1120 760">
<rect width="100%" height="100%" fill="white"/>
<text x="560.0" y="30" text-anchor="middle" font-family="Arial" font-size="24" font-weight="bold">Sector Sensitivity to Natural Gas Price Changes</text>
<line x1="797.5" y1="55" x2="797.5" y2="690" stroke="#111827" stroke-width="1.5"/>
<rect x="288.6" y="55.0" width="508.9" height="41.6" fill="#e07a1f"/>
<text x="218" y="79.8" text-anchor="end" font-family="Arial" font-size="12">Energy</text>
<text x="280.6" y="79.8" text-anchor="end" font-family="Arial" font-size="12">-0.846</text>
<rect x="503.7" y="112.7" width="293.8" height="41.6" fill="#e07a1f"/>
<text x="218" y="137.5" text-anchor="end" font-family="Arial" font-size="12">Consumer Staples</text>
<text x="495.7" y="137.5" text-anchor="end" font-family="Arial" font-size="12">-0.489</text>
<rect x="603.9" y="170.5" width="193.5" height="41.6" fill="#e07a1f"/>
<text x="218" y="195.2" text-anchor="end" font-family="Arial" font-size="12">Industrials</text>
<text x="595.9" y="195.2" text-anchor="end" font-family="Arial" font-size="12">-0.322</text>
<rect x="619.9" y="228.2" width="177.6" height="41.6" fill="#e07a1f"/>
<text x="218" y="253.0" text-anchor="end" font-family="Arial" font-size="12">Communication Services</text>
<text x="611.9" y="253.0" text-anchor="end" font-family="Arial" font-size="12">-0.295</text>
<rect x="647.1" y="285.9" width="150.4" height="41.6" fill="#e07a1f"/>
<text x="218" y="310.7" text-anchor="end" font-family="Arial" font-size="12">Utilities</text>
<text x="639.1" y="310.7" text-anchor="end" font-family="Arial" font-size="12">-0.250</text>
<rect x="747.7" y="343.6" width="49.8" height="41.6" fill="#e07a1f"/>
<text x="218" y="368.4" text-anchor="end" font-family="Arial" font-size="12">Real Estate</text>
<text x="739.7" y="368.4" text-anchor="end" font-family="Arial" font-size="12">-0.083</text>
<rect x="772.8" y="401.4" width="24.7" height="41.6" fill="#e07a1f"/>
<text x="218" y="426.1" text-anchor="end" font-family="Arial" font-size="12">Materials</text>
<text x="764.8" y="426.1" text-anchor="end" font-family="Arial" font-size="12">-0.041</text>
<rect x="797.5" y="459.1" width="6.5" height="41.6" fill="#1f4e79"/>
<text x="218" y="483.9" text-anchor="end" font-family="Arial" font-size="12">Information Technology</text>
<text x="811.9" y="483.9" text-anchor="start" font-family="Arial" font-size="12">0.011</text>
<rect x="797.5" y="516.8" width="17.2" height="41.6" fill="#1f4e79"/>
<text x="218" y="541.6" text-anchor="end" font-family="Arial" font-size="12">Financials</text>
<text x="822.7" y="541.6" text-anchor="start" font-family="Arial" font-size="12">0.029</text>
<rect x="797.5" y="574.5" width="217.5" height="41.6" fill="#1f4e79"/>
<text x="218" y="599.3" text-anchor="end" font-family="Arial" font-size="12">Consumer Discretionary</text>
<text x="1022.9" y="599.3" text-anchor="start" font-family="Arial" font-size="12">0.362</text>
<rect x="797.5" y="632.3" width="223.9" height="41.6" fill="#1f4e79"/>
<text x="218" y="657.1" text-anchor="end" font-family="Arial" font-size="12">Health Care</text>
<text x="1029.4" y="657.1" text-anchor="start" font-family="Arial" font-size="12">0.372</text>
<text x="560.0" y="742" text-anchor="middle" font-family="Arial" font-size="14">Correlation of annual margin change with annual natural gas price change</text>
</svg>