<svg xmlns="http://www.w3.org/2000/svg" width="1080" height="760" viewBox="0 0 1080 760">
<rect width="100%" height="100%" fill="white"/>
<text x="540.0" y="30" text-anchor="middle" font-family="Arial" font-size="24" font-weight="bold">Sector Median Gross Margin Change: 2022-2024 vs 2019-2021</text>
<line x1="769.7" y1="55" x2="769.7" y2="690" stroke="#111827" stroke-width="1.5"/>
<rect x="276.6" y="55.0" width="493.1" height="41.6" fill="#c0392b"/>
<text x="208" y="79.8" text-anchor="end" font-family="Arial" font-size="12">Utilities</text>
<text x="268.6" y="79.8" text-anchor="end" font-family="Arial" font-size="12">-0.055</text>
<rect x="526.2" y="112.7" width="243.5" height="41.6" fill="#c0392b"/>
<text x="208" y="137.5" text-anchor="end" font-family="Arial" font-size="12">Energy</text>
<text x="518.2" y="137.5" text-anchor="end" font-family="Arial" font-size="12">-0.027</text>
<rect x="547.5" y="170.5" width="222.2" height="41.6" fill="#c0392b"/>
<text x="208" y="195.2" text-anchor="end" font-family="Arial" font-size="12">Consumer Staples</text>
<text x="539.5" y="195.2" text-anchor="end" font-family="Arial" font-size="12">-0.025</text>
<rect x="740.0" y="228.2" width="29.7" height="41.6" fill="#c0392b"/>
<text x="208" y="253.0" text-anchor="end" font-family="Arial" font-size="12">Real Estate</text>
<text x="732.0" y="253.0" text-anchor="end" font-family="Arial" font-size="12">-0.003</text>
<rect x="769.7" y="285.9" width="12.3" height="41.6" fill="#2a9d8f"/>
<text x="208" y="310.7" text-anchor="end" font-family="Arial" font-size="12">Materials</text>
<text x="790.0" y="310.7" text-anchor="start" font-family="Arial" font-size="12">0.001</text>
<rect x="769.7" y="343.6" width="49.2" height="41.6" fill="#2a9d8f"/>
<text x="208" y="368.4" text-anchor="end" font-family="Arial" font-size="12">Health Care</text>
<text x="826.8" y="368.4" text-anchor="start" font-family="Arial" font-size="12">0.005</text>
<rect x="769.7" y="401.4" width="107.8" height="41.6" fill="#2a9d8f"/>
<text x="208" y="426.1" text-anchor="end" font-family="Arial" font-size="12">Information Technology</text>
<text x="885.5" y="426.1" text-anchor="start" font-family="Arial" font-size="12">0.012</text>
<rect x="769.7" y="459.1" width="116.8" height="41.6" fill="#2a9d8f"/>
<text x="208" y="483.9" text-anchor="end" font-family="Arial" font-size="12">Industrials</text>
<text x="894.5" y="483.9" text-anchor="start" font-family="Arial" font-size="12">0.013</text>
<rect x="769.7" y="516.8" width="140.1" height="41.6" fill="#2a9d8f"/>
<text x="208" y="541.6" text-anchor="end" font-family="Arial" font-size="12">Financials</text>
<text x="917.8" y="541.6" text-anchor="start" font-family="Arial" font-size="12">0.016</text>
<rect x="769.7" y="574.5" width="191.7" height="41.6" fill="#2a9d8f"/>
<text x="208" y="599.3" text-anchor="end" font-family="Arial" font-size="12">Communication Services</text>
<text x="969.4" y="599.3" text-anchor="start" font-family="Arial" font-size="12">0.021</text>
<rect x="769.7" y="632.3" width="213.8" height="41.6" fill="#2a9d8f"/>
<text x="208" y="657.1" text-anchor="end" font-family="Arial" font-size="12">Consumer Discretionary</text>
<text x="991.4" y="657.1" text-anchor="start" font-family="Arial" font-size="12">0.024</text>
<text x="540.0" y="742" text-anchor="middle" font-family="Arial" font-size="14">Change in median gross profit margin</text>
</svg>