<svg xmlns="http://www.w3.org/2000/svg" width="1120" height="760" viewBox="0 0 1120 760">
<rect width="100%" height="100%" fill="white"/>
<text x="560.0" y="30" text-anchor="middle" font-family="Arial" font-size="24" font-weight="bold">Sector Sensitivity to Electricity Price Changes</text>
<line x1="546.1" y1="55" x2="546.1" y2="690" stroke="#111827" stroke-width="1.5"/>
<rect x="288.6" y="55.0" width="257.5" height="41.6" fill="#e07a1f"/>
<text x="218" y="79.8" text-anchor="end" font-family="Arial" font-size="12">Energy</text>
<text x="280.6" y="79.8" text-anchor="end" font-family="Arial" font-size="12">-0.223</text>
<rect x="396.6" y="112.7" width="149.5" height="41.6" fill="#e07a1f"/>
<text x="218" y="137.5" text-anchor="end" font-family="Arial" font-size="12">Health Care</text>
<text x="388.6" y="137.5" text-anchor="end" font-family="Arial" font-size="12">-0.130</text>
<rect x="424.3" y="170.5" width="121.9" height="41.6" fill="#e07a1f"/>
<text x="218" y="195.2" text-anchor="end" font-family="Arial" font-size="12">Communication Services</text>
<text x="416.3" y="195.2" text-anchor="end" font-family="Arial" font-size="12">-0.106</text>
<rect x="443.4" y="228.2" width="102.7" height="41.6" fill="#e07a1f"/>
<text x="218" y="253.0" text-anchor="end" font-family="Arial" font-size="12">Materials</text>
<text x="435.4" y="253.0" text-anchor="end" font-family="Arial" font-size="12">-0.089</text>
<rect x="479.8" y="285.9" width="66.4" height="41.6" fill="#e07a1f"/>
<text x="218" y="310.7" text-anchor="end" font-family="Arial" font-size="12">Utilities</text>
<text x="471.8" y="310.7" text-anchor="end" font-family="Arial" font-size="12">-0.058</text>
<rect x="492.6" y="343.6" width="53.6" height="41.6" fill="#e07a1f"/>
<text x="218" y="368.4" text-anchor="end" font-family="Arial" font-size="12">Consumer Staples</text>
<text x="484.6" y="368.4" text-anchor="end" font-family="Arial" font-size="12">-0.046</text>
<rect x="512.1" y="401.4" width="34.1" height="41.6" fill="#e07a1f"/>
<text x="218" y="426.1" text-anchor="end" font-family="Arial" font-size="12">Information Technology</text>
<text x="504.1" y="426.1" text-anchor="end" font-family="Arial" font-size="12">-0.030</text>
<rect x="546.1" y="459.1" width="15.3" height="41.6" fill="#1f4e79"/>
<text x="218" y="483.9" text-anchor="end" font-family="Arial" font-size="12">Real Estate</text>
<text x="569.5" y="483.9" text-anchor="start" font-family="Arial" font-size="12">0.013</text>
<rect x="546.1" y="516.8" width="66.5" height="41.6" fill="#1f4e79"/>
<text x="218" y="541.6" text-anchor="end" font-family="Arial" font-size="12">Consumer Discretionary</text>
<text x="620.7" y="541.6" text-anchor="start" font-family="Arial" font-size="12">0.058</text>
<rect x="546.1" y="574.5" width="190.7" height="41.6" fill="#1f4e79"/>
<text x="218" y="599.3" text-anchor="end" font-family="Arial" font-size="12">Financials</text>
<text x="744.8" y="599.3" text-anchor="start" font-family="Arial" font-size="12">0.165</text>
<rect x="546.1" y="632.3" width="475.2" height="41.6" fill="#1f4e79"/>
<text x="218" y="657.1" text-anchor="end" font-family="Arial" font-size="12">Industrials</text>
<text x="1029.4" y="657.1" text-anchor="start" font-family="Arial" font-size="12">0.412</text>
<text x="560.0" y="742" text-anchor="middle" font-family="Arial" font-size="14">Correlation of annual margin change with annual price change</text>
</svg>