<svg xmlns="http://www.w3.org/2000/svg" width="1120" height="760" viewBox="0 0 1120 760">
<rect width="100%" height="100%" fill="white"/>
<text x="560.0" y="30" text-anchor="middle" font-family="Arial" font-size="24" font-weight="bold">Sector Sensitivity to Gas Price Changes</text>
<line x1="708.4" y1="55" x2="708.4" y2="690" stroke="#111827" stroke-width="1.5"/>
<rect x="288.6" y="55.0" width="419.8" height="41.6" fill="#c0392b"/>
<text x="218" y="79.8" text-anchor="end" font-family="Arial" font-size="12">Energy</text>
<text x="280.6" y="79.8" text-anchor="end" font-family="Arial" font-size="12">-0.680</text>
<rect x="454.0" y="112.7" width="254.3" height="41.6" fill="#c0392b"/>
<text x="218" y="137.5" text-anchor="end" font-family="Arial" font-size="12">Utilities</text>
<text x="446.0" y="137.5" text-anchor="end" font-family="Arial" font-size="12">-0.412</text>
<rect x="506.2" y="170.5" width="202.2" height="41.6" fill="#c0392b"/>
<text x="218" y="195.2" text-anchor="end" font-family="Arial" font-size="12">Materials</text>
<text x="498.2" y="195.2" text-anchor="end" font-family="Arial" font-size="12">-0.327</text>
<rect x="516.0" y="228.2" width="192.4" height="41.6" fill="#c0392b"/>
<text x="218" y="253.0" text-anchor="end" font-family="Arial" font-size="12">Communication Services</text>
<text x="508.0" y="253.0" text-anchor="end" font-family="Arial" font-size="12">-0.312</text>
<rect x="553.9" y="285.9" width="154.5" height="41.6" fill="#c0392b"/>
<text x="218" y="310.7" text-anchor="end" font-family="Arial" font-size="12">Information Technology</text>
<text x="545.9" y="310.7" text-anchor="end" font-family="Arial" font-size="12">-0.250</text>
<rect x="558.7" y="343.6" width="149.7" height="41.6" fill="#c0392b"/>
<text x="218" y="368.4" text-anchor="end" font-family="Arial" font-size="12">Consumer Staples</text>
<text x="550.7" y="368.4" text-anchor="end" font-family="Arial" font-size="12">-0.242</text>
<rect x="585.3" y="401.4" width="123.0" height="41.6" fill="#c0392b"/>
<text x="218" y="426.1" text-anchor="end" font-family="Arial" font-size="12">Industrials</text>
<text x="577.3" y="426.1" text-anchor="end" font-family="Arial" font-size="12">-0.199</text>
<rect x="654.7" y="459.1" width="53.7" height="41.6" fill="#c0392b"/>
<text x="218" y="483.9" text-anchor="end" font-family="Arial" font-size="12">Financials</text>
<text x="646.7" y="483.9" text-anchor="end" font-family="Arial" font-size="12">-0.087</text>
<rect x="708.4" y="516.8" width="210.0" height="41.6" fill="#2a9d8f"/>
<text x="218" y="541.6" text-anchor="end" font-family="Arial" font-size="12">Real Estate</text>
<text x="926.4" y="541.6" text-anchor="start" font-family="Arial" font-size="12">0.340</text>
<rect x="708.4" y="574.5" width="224.2" height="41.6" fill="#2a9d8f"/>
<text x="218" y="599.3" text-anchor="end" font-family="Arial" font-size="12">Consumer Discretionary</text>
<text x="940.6" y="599.3" text-anchor="start" font-family="Arial" font-size="12">0.363</text>
<rect x="708.4" y="632.3" width="313.0" height="41.6" fill="#2a9d8f"/>
<text x="218" y="657.1" text-anchor="end" font-family="Arial" font-size="12">Health Care</text>
<text x="1029.4" y="657.1" text-anchor="start" font-family="Arial" font-size="12">0.507</text>
<text x="560.0" y="742" text-anchor="middle" font-family="Arial" font-size="14">Correlation of annual margin change with annual price change</text>
</svg>