<svg xmlns="http://www.w3.org/2000/svg" width="1120" height="760" viewBox="0 0 1120 760">
<rect width="100%" height="100%" fill="white"/>
<text x="560.0" y="30" text-anchor="middle" font-family="Arial" font-size="24" font-weight="bold">Sector Sensitivity to CrudeOil Price Changes</text>
<line x1="709.2" y1="55" x2="709.2" y2="690" stroke="#111827" stroke-width="1.5"/>
<rect x="288.6" y="55.0" width="420.6" height="41.6" fill="#c0392b"/>
<text x="218" y="79.8" text-anchor="end" font-family="Arial" font-size="12">Energy</text>
<text x="280.6" y="79.8" text-anchor="end" font-family="Arial" font-size="12">-0.693</text>
<rect x="470.4" y="112.7" width="238.8" height="41.6" fill="#c0392b"/>
<text x="218" y="137.5" text-anchor="end" font-family="Arial" font-size="12">Materials</text>
<text x="462.4" y="137.5" text-anchor="end" font-family="Arial" font-size="12">-0.394</text>
<rect x="471.0" y="170.5" width="238.2" height="41.6" fill="#c0392b"/>
<text x="218" y="195.2" text-anchor="end" font-family="Arial" font-size="12">Communication Services</text>
<text x="463.0" y="195.2" text-anchor="end" font-family="Arial" font-size="12">-0.393</text>
<rect x="475.5" y="228.2" width="233.7" height="41.6" fill="#c0392b"/>
<text x="218" y="253.0" text-anchor="end" font-family="Arial" font-size="12">Utilities</text>
<text x="467.5" y="253.0" text-anchor="end" font-family="Arial" font-size="12">-0.385</text>
<rect x="550.8" y="285.9" width="158.4" height="41.6" fill="#c0392b"/>
<text x="218" y="310.7" text-anchor="end" font-family="Arial" font-size="12">Information Technology</text>
<text x="542.8" y="310.7" text-anchor="end" font-family="Arial" font-size="12">-0.261</text>
<rect x="600.2" y="343.6" width="109.0" height="41.6" fill="#c0392b"/>
<text x="218" y="368.4" text-anchor="end" font-family="Arial" font-size="12">Industrials</text>
<text x="592.2" y="368.4" text-anchor="end" font-family="Arial" font-size="12">-0.180</text>
<rect x="614.4" y="401.4" width="94.8" height="41.6" fill="#c0392b"/>
<text x="218" y="426.1" text-anchor="end" font-family="Arial" font-size="12">Consumer Staples</text>
<text x="606.4" y="426.1" text-anchor="end" font-family="Arial" font-size="12">-0.156</text>
<rect x="630.7" y="459.1" width="78.5" height="41.6" fill="#c0392b"/>
<text x="218" y="483.9" text-anchor="end" font-family="Arial" font-size="12">Financials</text>
<text x="622.7" y="483.9" text-anchor="end" font-family="Arial" font-size="12">-0.129</text>
<rect x="709.2" y="516.8" width="112.8" height="41.6" fill="#2a9d8f"/>
<text x="218" y="541.6" text-anchor="end" font-family="Arial" font-size="12">Real Estate</text>
<text x="830.0" y="541.6" text-anchor="start" font-family="Arial" font-size="12">0.186</text>
<rect x="709.2" y="574.5" width="303.4" height="41.6" fill="#2a9d8f"/>
<text x="218" y="599.3" text-anchor="end" font-family="Arial" font-size="12">Health Care</text>
<text x="1020.6" y="599.3" text-anchor="start" font-family="Arial" font-size="12">0.500</text>
<rect x="709.2" y="632.3" width="312.2" height="41.6" fill="#2a9d8f"/>
<text x="218" y="657.1" text-anchor="end" font-family="Arial" font-size="12">Consumer Discretionary</text>
<text x="1029.4" y="657.1" text-anchor="start" font-family="Arial" font-size="12">0.515</text>
<text x="560.0" y="742" text-anchor="middle" font-family="Arial" font-size="14">Correlation of annual margin change with annual price change</text>
</svg>